# xmcd CD database file
#
# Track frame offsets:
#	150
#	15625
#	30870
#	42563
#	52107
#	65488
#	81419
#	94485
#	105160
#	116591
#	132546
#	147757
#	161363
#	177937
#	189287
#	207963
#	219676
#	234230
#	249070
#	261257
#	278802
#	292975
#	304790
#	317320
#	336681
#
# Disc length: 4670 seconds
#
# Revision: 1
# Processed by: cddbd v1.5.2PL0 Copyright (c) Steve Scherf et al.
# Submitted via: CDex 1.51
#
DISCID=66123c19
DTITLE=Hank Williams III - (2009) Favorites
DYEAR=2009
DGENRE=Country
TTITLE0=7 Months, 39 Days
TTITLE1=I Don't Know
TTITLE2=The Grand Ole Opry (Ain't So Grand)
TTITLE3=Thrown Out Of The Bar
TTITLE4=Wild and Free
TTITLE5=Cecil Brown
TTITLE6=If The Shoe Fits
TTITLE7=Things You Do To Me
TTITLE8=Six Pack Of Beer
TTITLE9=If You Can't Help Your Own
TTITLE10=Mississippi Mud
TTITLE11=What Did Love Ever Do To You
TTITLE12=Candidate For Suicide
TTITLE13=Pills I Took
TTITLE14=Whiskey, Weed and Women
TTITLE15=Somke and Wine
TTITLE16=Trashville
TTITLE17=Devil's Daughter
TTITLE18=My Drinkin' Problem
TTITLE19=Cocaine Blues
TTITLE20=Crazed Country Rebel
TTITLE21=Dick In Dixie
TTITLE22=Nighttime Ramblin' Man
TTITLE23=3 Shades Of Black
TTITLE24=Workin' Man
EXTD=YEAR: 2009
EXTT0=
EXTT1=
EXTT2=
EXTT3=
EXTT4=
EXTT5=
EXTT6=
EXTT7=
EXTT8=
EXTT9=
EXTT10=
EXTT11=
EXTT12=
EXTT13=
EXTT14=
EXTT15=
EXTT16=
EXTT17=
EXTT18=
EXTT19=
EXTT20=
EXTT21=
EXTT22=
EXTT23=
EXTT24=
PLAYORDER=
